<svg id="svg" version="1.1" width="400" height="400" viewBox="0 0 400 400" xmlns="http://www.w3.org/2000/svg" xmlns:xlink="http://www.w3.org/1999/xlink"><g id="svgg"><path id="path0" d="M108.280 50.806 C 95.958 55.490,97.993 72.899,111.082 74.791 C 114.784 75.326,285.216 75.326,288.918 74.791 C 302.123 72.882,304.037 55.346,291.538 50.777 C 288.313 49.599,111.383 49.626,108.280 50.806 M108.280 100.806 C 95.958 105.490,97.993 122.899,111.082 124.791 C 114.784 125.326,285.216 125.326,288.918 124.791 C 302.123 122.882,304.037 105.346,291.538 100.777 C 288.313 99.599,111.383 99.626,108.280 100.806 M108.280 150.806 C 98.068 154.688,97.222 168.702,106.901 173.650 C 109.857 175.161,113.070 175.243,164.800 175.119 L 215.000 175.000 217.400 173.879 C 228.103 168.880,227.039 153.754,215.754 150.478 C 212.647 149.576,110.696 149.888,108.280 150.806 " stroke="none" fill="#94a4ac" fill-rule="evenodd"></path><path id="path1" d="M-0.000 261.178 C -0.000 334.989,0.134 371.965,0.400 371.800 C 0.620 371.664,0.800 371.279,0.800 370.944 C 0.800 369.825,3.526 366.217,5.474 364.756 C 6.533 363.962,43.265 339.409,87.100 310.195 C 159.293 262.080,167.671 256.400,166.437 256.400 C 166.096 256.400,154.762 249.274,153.717 248.403 C 153.451 248.181,153.130 248.000,153.004 248.000 C 152.877 248.000,150.895 246.740,148.600 245.200 C 146.305 243.660,144.241 242.400,144.013 242.400 C 143.786 242.400,143.600 242.220,143.600 242.000 C 143.600 241.780,143.364 241.600,143.075 241.600 C 142.787 241.600,142.164 241.240,141.692 240.800 C 141.220 240.360,140.760 240.000,140.670 240.000 C 140.410 240.000,123.062 229.064,121.800 228.104 C 121.580 227.937,120.905 227.545,120.300 227.232 C 119.695 226.920,119.200 226.515,119.200 226.332 C 119.200 226.150,119.012 226.000,118.782 226.000 C 118.552 226.000,117.067 225.131,115.482 224.070 C 113.897 223.008,112.330 222.023,112.000 221.880 C 111.670 221.737,109.178 220.175,106.462 218.410 C 103.746 216.644,101.445 215.200,101.348 215.200 C 101.252 215.200,99.295 213.940,97.000 212.400 C 94.705 210.860,92.723 209.600,92.597 209.600 C 92.470 209.600,91.980 209.240,91.508 208.800 C 91.036 208.360,90.413 208.000,90.125 208.000 C 89.836 208.000,89.600 207.820,89.600 207.600 C 89.600 207.380,89.426 207.200,89.214 207.200 C 89.002 207.200,87.247 206.185,85.314 204.944 C 83.381 203.703,80.810 202.058,79.600 201.288 C 78.390 200.518,75.917 198.923,74.104 197.744 C 72.291 196.565,70.626 195.600,70.404 195.600 C 70.182 195.600,70.000 195.420,70.000 195.200 C 70.000 194.980,69.730 194.800,69.400 194.800 C 69.070 194.800,68.800 194.620,68.800 194.400 C 68.800 194.180,68.530 194.000,68.200 194.000 C 67.870 194.000,67.600 193.820,67.600 193.600 C 67.600 193.380,67.412 193.200,67.182 193.200 C 66.952 193.200,65.430 192.300,63.800 191.200 C 62.170 190.100,60.730 189.200,60.601 189.200 C 60.472 189.200,60.149 189.018,59.883 188.795 C 59.617 188.573,57.240 187.025,54.600 185.357 C 51.960 183.688,49.710 182.183,49.600 182.012 C 49.490 181.842,48.230 180.963,46.800 180.059 C 45.370 179.156,43.983 178.233,43.717 178.008 C 43.451 177.784,43.129 177.600,43.002 177.600 C 42.874 177.600,41.163 176.520,39.200 175.200 C 37.237 173.880,35.444 172.800,35.215 172.800 C 34.987 172.800,34.800 172.620,34.800 172.400 C 34.800 172.180,34.628 172.000,34.418 172.000 C 34.208 172.000,32.183 170.810,29.918 169.356 C 27.653 167.901,25.170 166.314,24.400 165.828 C 23.630 165.342,21.156 163.742,18.903 162.272 C 16.650 160.802,14.625 159.600,14.403 159.600 C 14.181 159.600,14.000 159.420,14.000 159.200 C 14.000 158.980,13.730 158.800,13.400 158.800 C 13.070 158.800,12.800 158.620,12.800 158.400 C 12.800 158.180,12.612 158.000,12.382 158.000 C 12.152 158.000,10.632 157.101,9.003 156.002 C 7.375 154.903,5.141 153.473,4.039 152.823 C 2.937 152.173,1.577 151.342,1.018 150.975 L 0.000 150.308 -0.000 261.178 M396.348 152.587 C 394.450 153.752,391.805 155.446,390.470 156.352 C 389.136 157.259,387.854 158.000,387.622 158.000 C 387.390 158.000,387.200 158.180,387.200 158.400 C 387.200 158.620,386.930 158.800,386.600 158.800 C 386.270 158.800,386.000 158.980,386.000 159.200 C 386.000 159.420,385.819 159.600,385.597 159.600 C 385.375 159.600,383.350 160.802,381.097 162.272 C 378.844 163.742,376.370 165.342,375.600 165.828 C 374.830 166.314,372.347 167.901,370.082 169.356 C 367.817 170.810,365.792 172.000,365.582 172.000 C 365.372 172.000,365.200 172.180,365.200 172.400 C 365.200 172.620,365.013 172.800,364.785 172.800 C 364.556 172.800,362.763 173.880,360.800 175.200 C 358.837 176.520,357.126 177.600,356.998 177.600 C 356.871 177.600,356.549 177.784,356.283 178.008 C 356.017 178.233,354.630 179.156,353.200 180.059 C 351.770 180.963,350.510 181.842,350.400 182.012 C 350.290 182.183,348.040 183.688,345.400 185.357 C 342.760 187.025,340.383 188.573,340.117 188.795 C 339.851 189.018,339.528 189.200,339.399 189.200 C 339.270 189.200,337.830 190.100,336.200 191.200 C 334.570 192.300,333.048 193.200,332.818 193.200 C 332.588 193.200,332.400 193.380,332.400 193.600 C 332.400 193.820,332.130 194.000,331.800 194.000 C 331.470 194.000,331.200 194.180,331.200 194.400 C 331.200 194.620,330.930 194.800,330.600 194.800 C 330.270 194.800,330.000 194.980,330.000 195.200 C 330.000 195.420,329.818 195.600,329.596 195.600 C 329.374 195.600,327.709 196.565,325.896 197.744 C 324.083 198.923,321.610 200.518,320.400 201.288 C 319.190 202.058,316.619 203.703,314.686 204.944 C 312.753 206.185,310.998 207.200,310.786 207.200 C 310.574 207.200,310.400 207.380,310.400 207.600 C 310.400 207.820,310.164 208.000,309.875 208.000 C 309.587 208.000,308.964 208.360,308.492 208.800 C 308.020 209.240,307.530 209.600,307.403 209.600 C 307.277 209.600,305.295 210.860,303.000 212.400 C 300.705 213.940,298.748 215.200,298.652 215.200 C 298.555 215.200,296.254 216.644,293.538 218.410 C 290.822 220.175,288.330 221.737,288.000 221.880 C 287.670 222.023,286.103 223.008,284.518 224.070 C 282.933 225.131,281.448 226.000,281.218 226.000 C 280.988 226.000,280.800 226.150,280.800 226.332 C 280.800 226.515,280.305 226.920,279.700 227.232 C 279.095 227.545,278.420 227.937,278.200 228.104 C 276.938 229.064,259.590 240.000,259.330 240.000 C 259.240 240.000,258.780 240.360,258.308 240.800 C 257.836 241.240,257.213 241.600,256.925 241.600 C 256.636 241.600,256.400 241.780,256.400 242.000 C 256.400 242.220,256.214 242.400,255.987 242.400 C 255.759 242.400,253.695 243.660,251.400 245.200 C 249.105 246.740,247.123 248.000,246.996 248.000 C 246.870 248.000,246.549 248.181,246.283 248.403 C 245.238 249.274,233.904 256.400,233.563 256.400 C 232.329 256.400,240.815 262.155,314.028 310.967 C 400.291 368.480,397.342 366.394,399.461 371.400 C 399.839 372.293,400.057 290.559,399.901 205.835 L 399.800 150.469 396.348 152.587 " stroke="none" fill="#1c8ce4" fill-rule="evenodd"></path><path id="path2" d="M67.300 0.288 C 66.585 0.377,66.000 0.619,66.000 0.825 C 66.000 1.031,65.595 1.204,65.100 1.209 C 64.605 1.214,63.750 1.570,63.200 2.000 C 62.650 2.430,61.975 2.786,61.700 2.791 C 61.425 2.796,61.200 2.980,61.200 3.200 C 61.200 3.420,60.946 3.600,60.636 3.600 C 60.325 3.600,59.617 4.140,59.061 4.800 C 58.506 5.460,57.847 6.000,57.597 6.000 C 57.010 6.000,56.000 7.010,56.000 7.597 C 56.000 7.847,55.460 8.506,54.800 9.061 C 54.140 9.617,53.600 10.325,53.600 10.636 C 53.600 10.946,53.420 11.200,53.200 11.200 C 52.980 11.200,52.796 11.425,52.791 11.700 C 52.786 11.975,52.430 12.650,52.000 13.200 C 51.570 13.750,51.214 14.605,51.209 15.100 C 51.204 15.595,51.020 16.000,50.800 16.000 C 50.580 16.000,50.400 16.641,50.400 17.424 C 50.400 18.271,50.238 18.747,50.000 18.600 C 49.560 18.328,49.541 74.297,49.957 142.154 L 50.200 181.708 56.400 185.653 C 59.810 187.822,64.754 190.993,67.386 192.699 C 70.018 194.404,72.538 196.000,72.986 196.245 C 74.066 196.836,90.538 207.382,92.672 208.850 C 93.592 209.483,94.448 210.000,94.575 210.000 C 94.703 210.000,96.560 211.145,98.703 212.545 C 100.846 213.944,105.660 217.032,109.400 219.406 C 122.340 227.620,126.626 230.355,139.800 238.801 C 143.320 241.057,146.765 243.226,147.456 243.620 C 148.146 244.014,150.486 245.496,152.656 246.912 C 163.676 254.108,166.959 256.063,167.763 255.907 C 168.223 255.818,174.078 252.089,180.774 247.620 C 201.012 234.113,198.988 234.113,219.226 247.620 C 225.922 252.089,231.777 255.818,232.237 255.907 C 233.041 256.063,236.324 254.108,247.344 246.912 C 249.514 245.496,251.854 244.014,252.544 243.620 C 253.235 243.226,256.680 241.057,260.200 238.801 C 272.125 231.156,278.887 226.841,290.600 219.406 C 294.340 217.032,299.154 213.944,301.297 212.545 C 303.440 211.145,305.297 210.000,305.425 210.000 C 305.552 210.000,306.408 209.483,307.328 208.850 C 309.462 207.382,325.934 196.836,327.014 196.245 C 327.462 196.000,329.982 194.404,332.614 192.699 C 335.246 190.993,340.190 187.822,343.600 185.653 L 349.800 181.708 350.043 142.154 C 350.459 74.297,350.440 18.328,350.000 18.600 C 349.762 18.747,349.600 18.271,349.600 17.424 C 349.600 16.641,349.420 16.000,349.200 16.000 C 348.980 16.000,348.796 15.595,348.791 15.100 C 348.786 14.605,348.430 13.750,348.000 13.200 C 347.570 12.650,347.214 11.975,347.209 11.700 C 347.204 11.425,347.020 11.200,346.800 11.200 C 346.580 11.200,346.400 10.946,346.400 10.636 C 346.400 10.325,345.860 9.617,345.200 9.061 C 344.540 8.506,344.000 7.847,344.000 7.597 C 344.000 7.010,342.990 6.000,342.403 6.000 C 342.153 6.000,341.494 5.460,340.939 4.800 C 340.383 4.140,339.675 3.600,339.364 3.600 C 339.054 3.600,338.800 3.420,338.800 3.200 C 338.800 2.980,338.575 2.796,338.300 2.791 C 338.025 2.786,337.350 2.430,336.800 2.000 C 336.250 1.570,335.410 1.214,334.933 1.209 C 334.457 1.204,333.992 0.975,333.900 0.700 C 333.741 0.224,71.048 -0.183,67.300 0.288 M291.538 50.777 C 304.037 55.346,302.123 72.882,288.918 74.791 C 285.216 75.326,114.784 75.326,111.082 74.791 C 97.993 72.899,95.958 55.490,108.280 50.806 C 111.383 49.626,288.313 49.599,291.538 50.777 M291.538 100.777 C 304.037 105.346,302.123 122.882,288.918 124.791 C 285.216 125.326,114.784 125.326,111.082 124.791 C 97.993 122.899,95.958 105.490,108.280 100.806 C 111.383 99.626,288.313 99.599,291.538 100.777 M215.754 150.478 C 227.039 153.754,228.103 168.880,217.400 173.879 L 215.000 175.000 164.800 175.119 C 113.070 175.243,109.857 175.161,106.901 173.650 C 97.222 168.702,98.068 154.688,108.280 150.806 C 110.696 149.888,212.647 149.576,215.754 150.478 " stroke="none" fill="#ebebf3" fill-rule="evenodd"></path><path id="path3" d="M48.400 111.571 C 48.400 111.807,48.170 112.000,47.888 112.000 C 47.607 112.000,47.117 112.360,46.800 112.800 C 46.483 113.240,46.070 113.600,45.883 113.600 C 45.696 113.600,45.314 113.825,45.035 114.100 C 44.755 114.375,43.933 115.050,43.207 115.600 C 42.482 116.150,41.248 117.185,40.466 117.900 C 39.684 118.615,38.881 119.200,38.682 119.200 C 38.484 119.200,37.817 119.740,37.200 120.400 C 36.583 121.060,35.863 121.600,35.600 121.600 C 35.337 121.600,34.617 122.140,34.000 122.800 C 33.383 123.460,32.726 124.000,32.540 124.000 C 32.353 124.001,31.660 124.472,31.000 125.047 C 30.340 125.623,29.167 126.498,28.394 126.992 C 27.621 127.487,26.744 128.186,26.445 128.546 C 26.146 128.906,25.738 129.200,25.538 129.200 C 25.337 129.200,24.543 129.830,23.773 130.600 C 23.003 131.370,22.208 132.000,22.005 132.000 C 21.802 132.000,21.186 132.450,20.636 133.000 C 20.086 133.550,19.486 134.000,19.302 134.000 C 19.118 134.000,18.172 134.720,17.200 135.600 C 16.228 136.480,15.272 137.200,15.076 137.200 C 14.881 137.200,14.217 137.740,13.600 138.400 C 12.983 139.060,12.308 139.600,12.099 139.600 C 11.890 139.600,11.154 140.140,10.463 140.800 C 9.772 141.460,9.063 142.000,8.887 142.000 C 8.711 142.000,7.899 142.630,7.082 143.400 C 6.266 144.170,5.401 144.800,5.160 144.800 C 4.918 144.800,4.217 145.340,3.600 146.000 C 2.983 146.660,2.257 147.200,1.986 147.200 C 1.402 147.200,-0.003 148.734,0.007 149.361 C 0.014 149.808,2.925 151.758,15.000 159.403 C 18.740 161.771,23.494 164.807,25.564 166.149 C 27.634 167.492,29.663 168.772,30.074 168.995 C 30.747 169.360,36.690 173.141,45.994 179.123 C 47.861 180.323,49.571 181.532,49.794 181.810 C 50.326 182.473,60.728 189.200,61.221 189.200 C 61.429 189.200,61.600 189.380,61.600 189.600 C 61.600 189.820,61.781 190.000,62.003 190.000 C 62.225 190.000,64.160 191.145,66.303 192.544 C 68.446 193.943,72.990 196.855,76.400 199.015 C 79.810 201.175,84.361 204.080,86.514 205.471 C 88.666 206.862,90.519 208.000,90.631 208.000 C 90.742 208.000,91.051 208.186,91.317 208.413 C 91.583 208.640,94.950 210.821,98.800 213.259 C 102.650 215.698,107.283 218.662,109.096 219.846 C 110.909 221.031,112.574 222.000,112.796 222.000 C 113.018 222.000,113.200 222.180,113.200 222.400 C 113.200 222.620,113.386 222.800,113.613 222.800 C 113.841 222.800,115.872 224.015,118.127 225.500 C 120.382 226.985,122.535 228.380,122.911 228.600 C 123.287 228.820,126.239 230.710,129.471 232.800 C 132.704 234.890,135.540 236.673,135.774 236.762 C 136.008 236.851,137.497 237.796,139.082 238.862 C 140.667 239.928,142.070 240.800,142.199 240.800 C 142.328 240.800,142.820 241.160,143.292 241.600 C 143.764 242.040,144.387 242.400,144.675 242.400 C 144.964 242.400,145.200 242.580,145.200 242.800 C 145.200 243.020,145.374 243.200,145.587 243.200 C 145.799 243.200,148.004 244.524,150.487 246.141 C 167.349 257.129,167.218 257.058,168.894 256.126 C 169.612 255.727,170.290 255.305,170.400 255.189 C 170.948 254.611,193.275 240.000,193.610 240.000 C 193.825 240.000,194.000 239.849,194.000 239.664 C 194.000 239.026,197.320 238.235,200.000 238.235 C 202.680 238.235,206.000 239.026,206.000 239.664 C 206.000 239.849,206.175 240.000,206.390 240.000 C 206.725 240.000,229.052 254.611,229.600 255.189 C 229.710 255.305,230.388 255.727,231.106 256.126 C 232.782 257.058,232.651 257.129,249.513 246.141 C 251.996 244.524,254.201 243.200,254.413 243.200 C 254.626 243.200,254.800 243.020,254.800 242.800 C 254.800 242.580,255.036 242.400,255.325 242.400 C 255.613 242.400,256.236 242.040,256.708 241.600 C 257.180 241.160,257.672 240.800,257.801 240.800 C 257.930 240.800,259.333 239.928,260.918 238.862 C 262.503 237.796,263.992 236.851,264.226 236.762 C 264.460 236.673,267.296 234.890,270.529 232.800 C 273.761 230.710,276.713 228.820,277.089 228.600 C 277.465 228.380,279.618 226.985,281.873 225.500 C 284.128 224.015,286.159 222.800,286.387 222.800 C 286.614 222.800,286.800 222.620,286.800 222.400 C 286.800 222.180,286.982 222.000,287.204 222.000 C 287.426 222.000,289.091 221.031,290.904 219.846 C 292.717 218.662,297.350 215.698,301.200 213.259 C 305.050 210.821,308.417 208.640,308.683 208.413 C 308.949 208.186,309.258 208.000,309.369 208.000 C 309.481 208.000,311.334 206.862,313.486 205.471 C 315.639 204.080,320.190 201.175,323.600 199.015 C 327.010 196.855,331.554 193.943,333.697 192.544 C 335.840 191.145,337.775 190.000,337.997 190.000 C 338.219 190.000,338.400 189.820,338.400 189.600 C 338.400 189.380,338.571 189.200,338.779 189.200 C 339.272 189.200,349.674 182.473,350.206 181.810 C 350.429 181.532,352.139 180.323,354.006 179.123 C 363.310 173.141,369.253 169.360,369.926 168.995 C 370.337 168.772,372.366 167.492,374.436 166.149 C 376.506 164.807,381.260 161.771,385.000 159.403 C 397.075 151.758,399.986 149.808,399.993 149.361 C 400.003 148.734,398.598 147.200,398.014 147.200 C 397.743 147.200,397.017 146.660,396.400 146.000 C 395.783 145.340,395.082 144.800,394.840 144.800 C 394.599 144.800,393.734 144.170,392.918 143.400 C 392.101 142.630,391.289 142.000,391.113 142.000 C 390.937 142.000,390.228 141.460,389.537 140.800 C 388.846 140.140,388.110 139.600,387.901 139.600 C 387.692 139.600,387.017 139.060,386.400 138.400 C 385.783 137.740,385.119 137.200,384.924 137.200 C 384.728 137.200,383.772 136.480,382.800 135.600 C 381.828 134.720,380.882 134.000,380.698 134.000 C 380.514 134.000,379.914 133.550,379.364 133.000 C 378.814 132.450,378.198 132.000,377.995 132.000 C 377.792 132.000,376.997 131.370,376.227 130.600 C 375.457 129.830,374.663 129.200,374.462 129.200 C 374.262 129.200,373.854 128.906,373.555 128.546 C 373.256 128.186,372.379 127.487,371.606 126.992 C 370.833 126.498,369.660 125.623,369.000 125.047 C 368.340 124.472,367.647 124.001,367.460 124.000 C 367.274 124.000,366.617 123.460,366.000 122.800 C 365.383 122.140,364.663 121.600,364.400 121.600 C 364.137 121.600,363.417 121.060,362.800 120.400 C 362.183 119.740,361.516 119.200,361.318 119.200 C 361.119 119.200,360.316 118.615,359.534 117.900 C 358.752 117.185,357.518 116.150,356.793 115.600 C 356.067 115.050,355.245 114.375,354.965 114.100 C 354.686 113.825,354.304 113.600,354.117 113.600 C 353.930 113.600,353.517 113.240,353.200 112.800 C 352.883 112.360,352.393 112.000,352.112 112.000 C 351.830 112.000,351.600 111.807,351.600 111.571 C 351.600 111.335,351.285 111.202,350.900 111.276 C 350.241 111.403,350.188 113.494,350.000 146.559 L 349.800 181.708 343.600 185.653 C 340.190 187.822,335.246 190.993,332.614 192.699 C 329.982 194.404,327.462 196.000,327.014 196.245 C 325.934 196.836,309.462 207.382,307.328 208.850 C 306.408 209.483,305.552 210.000,305.425 210.000 C 305.297 210.000,303.440 211.145,301.297 212.545 C 299.154 213.944,294.340 217.032,290.600 219.406 C 277.660 227.620,273.374 230.355,260.200 238.801 C 256.680 241.057,253.235 243.226,252.544 243.620 C 251.854 244.014,249.514 245.496,247.344 246.912 C 236.324 254.108,233.041 256.063,232.237 255.907 C 231.777 255.818,225.922 252.089,219.226 247.620 C 198.988 234.113,201.012 234.113,180.774 247.620 C 174.078 252.089,168.223 255.818,167.763 255.907 C 166.959 256.063,163.676 254.108,152.656 246.912 C 150.486 245.496,148.146 244.014,147.456 243.620 C 146.765 243.226,143.320 241.057,139.800 238.801 C 129.046 231.906,119.963 226.111,109.400 219.406 C 105.660 217.032,100.846 213.944,98.703 212.545 C 96.560 211.145,94.703 210.000,94.575 210.000 C 94.448 210.000,93.592 209.483,92.672 208.850 C 90.538 207.382,74.066 196.836,72.986 196.245 C 72.538 196.000,70.018 194.404,67.386 192.699 C 64.754 190.993,59.810 187.822,56.400 185.653 L 50.200 181.708 50.000 146.559 C 49.812 113.494,49.759 111.403,49.100 111.276 C 48.715 111.202,48.400 111.335,48.400 111.571 " stroke="none" fill="#64b4f3" fill-rule="evenodd"></path><path id="path4" d="M0.800 150.789 C 2.001 151.715,4.800 153.320,4.800 153.082 C 4.800 152.835,0.467 149.998,0.106 150.009 C -0.062 150.014,0.250 150.365,0.800 150.789 M397.487 151.368 C 396.435 152.096,395.445 152.835,395.287 153.009 C 394.852 153.488,398.059 151.669,399.200 150.789 C 400.871 149.501,399.531 149.954,397.487 151.368 M7.600 154.897 C 7.600 155.218,12.063 158.070,12.259 157.875 C 12.360 157.774,11.758 157.277,10.921 156.770 C 10.084 156.263,8.995 155.592,8.500 155.278 C 8.005 154.965,7.600 154.793,7.600 154.897 M389.879 156.256 C 388.602 157.045,387.640 157.773,387.741 157.874 C 387.919 158.052,392.400 155.233,392.400 154.943 C 392.400 154.708,392.295 154.763,389.879 156.256 M14.000 159.154 C 14.000 159.399,14.181 159.600,14.403 159.600 C 14.625 159.600,16.560 160.746,18.703 162.146 C 22.561 164.667,27.735 167.982,28.700 168.552 C 28.975 168.714,29.200 168.770,29.200 168.676 C 29.200 168.523,26.754 166.907,18.800 161.806 C 17.370 160.888,15.705 159.816,15.100 159.423 C 14.452 159.002,14.000 158.891,14.000 159.154 M382.200 161.138 C 380.220 162.421,376.845 164.604,374.700 165.988 C 372.555 167.373,370.800 168.583,370.800 168.676 C 370.800 168.770,371.025 168.714,371.300 168.552 C 372.265 167.982,377.439 164.667,381.297 162.146 C 383.440 160.746,385.375 159.600,385.597 159.600 C 385.819 159.600,386.000 159.420,386.000 159.200 C 386.000 158.648,386.198 158.547,382.200 161.138 M29.600 168.910 C 29.600 169.221,34.068 172.065,34.258 171.876 C 34.358 171.775,33.486 171.087,32.320 170.347 C 29.945 168.839,29.600 168.657,29.600 168.910 M367.692 170.301 C 366.533 171.080,365.661 171.794,365.755 171.888 C 365.923 172.057,370.400 169.219,370.400 168.943 C 370.400 168.605,369.670 168.971,367.692 170.301 M37.200 173.695 C 37.200 173.997,42.860 177.674,43.042 177.491 C 43.134 177.400,42.352 176.791,41.304 176.139 C 40.257 175.487,38.905 174.628,38.300 174.231 C 37.695 173.833,37.200 173.592,37.200 173.695 M359.704 175.482 C 358.111 176.504,356.878 177.412,356.965 177.499 C 357.125 177.658,362.800 174.004,362.800 173.741 C 362.800 173.503,362.690 173.565,359.704 175.482 M43.600 177.954 C 43.600 178.199,43.752 178.400,43.938 178.400 C 44.124 178.400,45.390 179.120,46.751 180.000 C 48.113 180.880,49.354 181.600,49.508 181.600 C 49.759 181.600,47.854 180.260,44.700 178.220 C 44.050 177.799,43.600 177.690,43.600 177.954 M353.181 179.614 C 351.542 180.705,350.329 181.598,350.487 181.599 C 350.644 181.600,351.869 180.892,353.208 180.026 C 354.547 179.161,355.858 178.375,356.122 178.281 C 356.385 178.187,356.502 178.002,356.381 177.870 C 356.261 177.738,354.821 178.522,353.181 179.614 M100.000 214.364 C 100.550 214.814,101.180 215.183,101.400 215.185 C 101.828 215.188,101.105 214.634,99.800 213.960 C 99.269 213.685,99.336 213.821,100.000 214.364 M299.400 214.400 C 298.740 214.837,298.380 215.192,298.600 215.188 C 299.001 215.182,301.176 213.623,300.800 213.612 C 300.690 213.608,300.060 213.963,299.400 214.400 M198.000 238.245 C 196.173 238.552,194.000 239.323,194.000 239.664 C 194.000 239.849,193.825 240.000,193.610 240.000 C 193.275 240.000,170.948 254.611,170.400 255.189 C 169.880 255.738,167.518 256.851,167.312 256.645 C 167.184 256.517,166.881 256.662,166.640 256.968 C 166.398 257.273,129.962 281.673,85.672 311.190 C 7.170 363.507,2.900 366.455,1.556 369.257 C 1.202 369.996,0.685 371.080,0.407 371.666 C -0.318 373.195,0.055 382.188,0.908 383.750 C 1.254 384.382,1.446 385.136,1.335 385.425 C 1.224 385.715,1.508 386.186,1.967 386.472 C 2.425 386.758,2.800 387.369,2.800 387.828 C 2.800 388.288,3.517 389.460,4.394 390.432 C 5.271 391.404,5.991 392.348,5.994 392.529 C 6.002 392.954,7.046 393.998,7.471 394.006 C 7.652 394.009,8.596 394.729,9.568 395.606 C 10.540 396.483,11.712 397.200,12.172 397.200 C 12.631 397.200,13.242 397.575,13.528 398.033 C 13.814 398.492,14.285 398.776,14.575 398.665 C 14.864 398.554,15.618 398.764,16.250 399.132 C 18.028 400.165,381.972 400.165,383.750 399.132 C 384.382 398.764,385.136 398.554,385.425 398.665 C 385.715 398.776,386.186 398.492,386.472 398.033 C 386.758 397.575,387.369 397.200,387.828 397.200 C 388.288 397.200,389.460 396.483,390.432 395.606 C 391.404 394.729,392.348 394.009,392.529 394.006 C 392.709 394.003,393.114 393.743,393.429 393.429 C 393.743 393.114,394.003 392.709,394.006 392.529 C 394.009 392.348,394.729 391.404,395.606 390.432 C 396.483 389.460,397.200 388.288,397.200 387.828 C 397.200 387.369,397.575 386.758,398.033 386.472 C 398.492 386.186,398.776 385.715,398.665 385.425 C 398.554 385.136,398.746 384.382,399.092 383.750 C 399.945 382.188,400.318 373.195,399.593 371.666 C 396.943 366.077,400.945 368.915,314.328 311.190 C 270.038 281.673,233.602 257.273,233.360 256.968 C 233.119 256.662,232.816 256.517,232.688 256.645 C 232.482 256.851,230.120 255.738,229.600 255.189 C 229.052 254.611,206.725 240.000,206.390 240.000 C 206.175 240.000,206.000 239.856,206.000 239.680 C 206.000 238.861,200.356 237.848,198.000 238.245 " stroke="none" fill="#2494f3" fill-rule="evenodd"></path></g></svg>