<svg id="svg" version="1.1" width="400" height="400" viewBox="0 0 400 400" xmlns="http://www.w3.org/2000/svg" xmlns:xlink="http://www.w3.org/1999/xlink"><g id="svgg"><path id="path0" d="M104.600 75.698 C 78.135 80.833,67.334 110.655,84.478 131.256 C 88.127 135.640,95.150 140.113,100.600 141.523 C 101.480 141.750,102.941 142.131,103.846 142.368 C 117.192 145.867,134.277 136.971,140.659 123.200 C 141.790 120.759,142.087 119.878,143.168 115.754 C 144.828 109.423,143.014 98.632,139.176 92.006 C 132.388 80.287,117.395 73.216,104.600 75.698 M255.000 155.614 C 249.841 155.979,246.987 156.335,245.600 156.788 C 245.050 156.967,243.520 157.343,242.200 157.622 C 240.880 157.901,239.629 158.280,239.420 158.464 C 239.211 158.649,238.714 158.800,238.315 158.800 C 237.916 158.800,237.277 158.963,236.895 159.162 C 236.513 159.360,234.780 160.178,233.045 160.978 C 226.550 163.973,221.129 168.314,216.287 174.400 C 212.721 178.882,212.909 179.089,212.727 170.496 C 212.538 161.604,212.166 160.546,208.505 158.500 C 207.025 157.672,166.148 157.788,164.471 158.624 C 163.025 159.346,161.768 160.824,160.964 162.749 C 160.070 164.887,160.124 317.765,161.019 319.907 C 163.054 324.777,163.174 324.800,186.584 324.800 C 208.085 324.800,208.005 324.808,210.316 322.488 C 212.512 320.284,212.400 322.671,212.400 278.013 C 212.400 237.638,212.477 234.556,213.642 228.600 C 217.501 208.867,229.652 198.301,246.120 200.356 C 258.979 201.961,266.416 209.857,269.142 224.800 C 270.305 231.178,270.400 235.085,270.401 276.621 L 270.403 319.400 271.256 320.800 C 272.318 322.543,273.412 323.508,275.149 324.235 C 277.139 325.069,316.858 325.069,318.851 324.236 C 320.967 323.352,322.233 322.168,323.152 320.213 C 324.687 316.947,324.368 228.499,322.773 215.200 C 321.307 202.969,319.078 193.721,315.949 186.890 C 315.317 185.509,314.800 184.291,314.800 184.183 C 314.800 184.074,314.080 182.800,313.200 181.352 C 312.320 179.903,311.600 178.591,311.600 178.435 C 311.600 178.279,311.280 177.802,310.889 177.375 C 310.498 176.949,309.744 175.970,309.213 175.200 C 303.890 167.484,293.285 160.533,282.400 157.626 C 281.410 157.362,280.047 156.978,279.372 156.773 C 278.696 156.568,277.616 156.399,276.972 156.398 C 276.327 156.397,275.170 156.231,274.400 156.031 C 272.399 155.509,260.193 155.247,255.000 155.614 M87.930 158.902 C 86.003 160.079,84.836 161.620,84.155 163.884 C 83.250 166.889,83.336 315.762,84.243 318.827 C 85.953 324.602,86.815 324.800,110.161 324.800 C 132.610 324.800,133.622 324.588,135.467 319.501 C 136.407 316.909,136.161 164.571,135.213 162.600 C 132.910 157.809,133.958 158.000,109.888 158.002 L 89.400 158.004 87.930 158.902 " stroke="none" fill="#fafbfb" fill-rule="evenodd"></path><path id="path1" d="M43.300 0.292 C 42.145 0.375,41.200 0.612,41.200 0.821 C 41.200 1.029,40.570 1.200,39.800 1.200 C 39.030 1.200,38.400 1.380,38.400 1.600 C 38.400 1.820,37.770 2.000,37.000 2.000 C 36.230 2.000,35.600 2.180,35.600 2.400 C 35.600 2.620,35.139 2.800,34.576 2.800 C 33.996 2.800,33.660 2.973,33.800 3.200 C 33.936 3.420,33.712 3.600,33.303 3.600 C 32.391 3.600,30.407 4.489,30.403 4.900 C 30.401 5.065,30.040 5.200,29.600 5.200 C 29.160 5.200,28.800 5.380,28.800 5.600 C 28.800 5.820,28.339 6.000,27.776 6.000 C 27.196 6.000,26.860 6.173,27.000 6.400 C 27.136 6.620,26.967 6.800,26.624 6.800 C 26.281 6.800,26.000 6.980,26.000 7.200 C 26.000 7.420,25.730 7.600,25.400 7.600 C 25.070 7.600,24.800 7.780,24.800 8.000 C 24.800 8.220,24.472 8.400,24.072 8.400 C 23.672 8.400,22.947 8.857,22.461 9.416 C 21.974 9.975,21.402 10.325,21.188 10.193 C 20.975 10.061,20.800 10.173,20.800 10.443 C 20.800 10.713,20.691 10.824,20.557 10.690 C 20.424 10.557,19.421 11.341,18.329 12.433 C 17.237 13.525,15.906 14.705,15.371 15.055 C 14.837 15.406,14.400 15.843,14.400 16.027 C 14.400 16.211,13.511 17.251,12.424 18.338 C 11.337 19.425,10.557 20.424,10.690 20.557 C 10.824 20.691,10.723 20.800,10.467 20.800 C 10.210 20.800,10.021 20.935,10.047 21.100 C 10.179 21.933,9.938 22.400,9.376 22.400 C 9.033 22.400,8.864 22.580,9.000 22.800 C 9.136 23.020,9.057 23.200,8.824 23.200 C 8.591 23.200,8.400 23.520,8.400 23.912 C 8.400 24.303,8.040 24.883,7.600 25.200 C 7.160 25.517,6.800 26.107,6.800 26.512 C 6.800 26.916,6.620 27.136,6.400 27.000 C 6.180 26.864,6.000 27.123,6.000 27.576 C 6.000 28.029,5.820 28.400,5.600 28.400 C 5.380 28.400,5.200 28.850,5.200 29.400 C 5.200 29.950,5.020 30.400,4.800 30.400 C 4.580 30.400,4.400 30.670,4.400 31.000 C 4.400 31.330,4.220 31.600,4.000 31.600 C 3.780 31.600,3.621 31.735,3.647 31.900 C 3.804 32.891,3.540 34.010,3.200 33.800 C 2.974 33.660,2.800 33.988,2.800 34.553 C 2.800 35.103,2.620 35.664,2.400 35.800 C 2.180 35.936,2.000 36.577,2.000 37.224 C 2.000 37.871,1.820 38.400,1.600 38.400 C 1.380 38.400,1.200 39.015,1.200 39.767 C 1.200 40.518,0.975 41.208,0.700 41.300 C -0.036 41.545,-0.036 358.455,0.700 358.700 C 0.975 358.792,1.200 359.482,1.200 360.233 C 1.200 360.985,1.380 361.600,1.600 361.600 C 1.820 361.600,2.000 362.039,2.000 362.576 C 2.000 363.113,2.180 363.664,2.400 363.800 C 2.620 363.936,2.800 364.587,2.800 365.247 C 2.800 365.945,2.967 366.344,3.200 366.200 C 3.420 366.064,3.600 366.306,3.600 366.739 C 3.600 367.573,5.194 370.908,5.700 371.133 C 5.865 371.207,6.000 371.712,6.000 372.257 C 6.000 372.815,6.174 373.139,6.400 373.000 C 6.620 372.864,6.800 373.033,6.800 373.376 C 6.800 373.719,6.980 374.000,7.200 374.000 C 7.420 374.000,7.600 374.270,7.600 374.600 C 7.600 374.930,7.759 375.200,7.953 375.200 C 8.267 375.200,8.438 375.581,8.765 377.000 C 8.815 377.220,9.114 377.544,9.428 377.720 C 9.743 377.896,10.000 378.301,10.000 378.620 C 10.000 378.939,10.210 379.200,10.467 379.200 C 10.723 379.200,10.820 379.314,10.680 379.453 C 10.461 379.673,18.984 388.317,20.488 389.400 C 21.561 390.172,22.609 390.810,23.600 391.294 C 24.150 391.562,24.891 392.101,25.247 392.491 C 25.603 392.881,26.198 393.200,26.571 393.200 C 26.943 393.200,27.136 393.380,27.000 393.600 C 26.864 393.820,27.028 394.000,27.364 394.000 C 27.701 394.000,28.617 394.360,29.400 394.800 C 30.183 395.240,31.089 395.600,31.412 395.600 C 31.735 395.600,32.000 395.780,32.000 396.000 C 32.000 396.220,32.461 396.400,33.024 396.400 C 33.604 396.400,33.940 396.573,33.800 396.800 C 33.656 397.033,34.055 397.200,34.753 397.200 C 35.413 397.200,36.064 397.380,36.200 397.600 C 36.336 397.820,36.797 398.000,37.224 398.000 C 37.651 398.000,38.000 398.143,38.000 398.318 C 38.000 398.493,38.670 398.682,39.488 398.737 C 40.306 398.792,41.110 399.054,41.273 399.318 C 41.707 400.021,358.293 400.021,358.727 399.318 C 358.890 399.054,359.694 398.792,360.512 398.737 C 361.330 398.682,362.000 398.493,362.000 398.318 C 362.000 398.143,362.349 398.000,362.776 398.000 C 363.203 398.000,363.664 397.820,363.800 397.600 C 363.936 397.380,364.587 397.200,365.247 397.200 C 365.945 397.200,366.344 397.033,366.200 396.800 C 366.060 396.574,366.388 396.400,366.953 396.400 C 367.503 396.400,368.064 396.220,368.200 396.000 C 368.336 395.780,368.797 395.600,369.224 395.600 C 369.651 395.600,370.000 395.420,370.000 395.200 C 370.000 394.980,370.360 394.800,370.800 394.800 C 371.240 394.800,371.600 394.620,371.600 394.400 C 371.600 394.180,371.971 394.000,372.424 394.000 C 372.877 394.000,373.136 393.820,373.000 393.600 C 372.864 393.380,373.057 393.200,373.429 393.200 C 373.802 393.200,374.397 392.873,374.753 392.472 C 375.393 391.753,376.598 391.138,377.032 391.311 C 377.156 391.360,377.433 391.085,377.648 390.700 C 377.863 390.315,378.301 390.000,378.620 390.000 C 378.939 390.000,379.200 389.790,379.200 389.533 C 379.200 389.277,379.303 389.169,379.428 389.295 C 379.554 389.420,380.432 388.775,381.380 387.861 C 382.329 386.948,383.531 385.818,384.052 385.350 C 384.574 384.883,385.900 383.474,387.000 382.220 C 388.100 380.965,389.225 379.696,389.500 379.398 C 389.775 379.101,390.000 378.673,390.000 378.448 C 390.000 378.224,390.315 377.863,390.700 377.648 C 391.085 377.433,391.371 377.158,391.335 377.037 C 391.192 376.554,391.716 375.200,392.047 375.200 C 392.241 375.200,392.400 374.970,392.400 374.688 C 392.400 374.407,392.760 373.917,393.200 373.600 C 393.640 373.283,394.000 372.613,394.000 372.112 C 394.000 371.610,394.180 371.200,394.400 371.200 C 394.620 371.200,394.800 370.930,394.800 370.600 C 394.800 370.270,394.980 370.000,395.200 370.000 C 395.420 370.000,395.600 369.550,395.600 369.000 C 395.600 368.450,395.780 368.000,396.000 368.000 C 396.220 368.000,396.400 367.539,396.400 366.976 C 396.400 366.396,396.573 366.060,396.800 366.200 C 397.026 366.340,397.200 366.012,397.200 365.447 C 397.200 364.897,397.380 364.336,397.600 364.200 C 397.820 364.064,398.000 363.513,398.000 362.976 C 398.000 362.439,398.143 362.000,398.318 362.000 C 398.493 362.000,398.681 361.334,398.736 360.519 C 398.791 359.705,399.053 358.777,399.318 358.458 C 400.037 357.591,400.020 41.540,399.300 41.300 C 399.025 41.208,398.800 40.518,398.800 39.767 C 398.800 39.015,398.620 38.400,398.400 38.400 C 398.180 38.400,398.000 37.871,398.000 37.224 C 398.000 36.577,397.820 35.936,397.600 35.800 C 397.380 35.664,397.200 35.222,397.200 34.817 C 397.200 34.412,396.660 33.055,396.000 31.800 C 395.340 30.545,394.800 29.256,394.800 28.936 C 394.800 28.615,394.620 28.464,394.400 28.600 C 394.172 28.741,394.000 28.396,394.000 27.800 C 394.000 27.204,393.828 26.859,393.600 27.000 C 393.380 27.136,393.200 26.967,393.200 26.624 C 393.200 26.281,393.020 26.000,392.800 26.000 C 392.580 26.000,392.400 25.730,392.400 25.400 C 392.400 25.070,392.241 24.800,392.047 24.800 C 391.760 24.800,391.166 23.426,391.309 23.091 C 391.330 23.041,390.862 22.477,390.270 21.837 C 389.677 21.198,389.269 20.598,389.363 20.503 C 389.458 20.409,388.681 19.492,387.637 18.466 C 386.593 17.440,385.417 16.105,385.023 15.500 C 384.630 14.895,384.151 14.400,383.959 14.400 C 383.767 14.400,382.722 13.516,381.636 12.436 C 380.550 11.356,379.558 10.576,379.431 10.703 C 379.304 10.829,379.200 10.723,379.200 10.467 C 379.200 10.210,378.939 10.000,378.620 10.000 C 378.301 10.000,377.880 9.714,377.684 9.364 C 377.488 9.014,377.164 8.722,376.964 8.713 C 376.217 8.682,375.381 8.234,374.753 7.528 C 374.397 7.127,373.802 6.800,373.429 6.800 C 373.057 6.800,372.864 6.620,373.000 6.400 C 373.136 6.180,372.877 6.000,372.424 6.000 C 371.971 6.000,371.600 5.820,371.600 5.600 C 371.600 5.380,371.251 5.200,370.824 5.200 C 370.397 5.200,369.936 5.020,369.800 4.800 C 369.664 4.580,369.203 4.400,368.776 4.400 C 368.349 4.400,368.000 4.220,368.000 4.000 C 368.000 3.780,367.539 3.600,366.976 3.600 C 366.396 3.600,366.060 3.427,366.200 3.200 C 366.340 2.974,366.012 2.800,365.447 2.800 C 364.897 2.800,364.336 2.620,364.200 2.400 C 364.064 2.180,363.423 2.000,362.776 2.000 C 362.129 2.000,361.600 1.820,361.600 1.600 C 361.600 1.380,360.985 1.200,360.233 1.200 C 359.482 1.200,358.792 0.975,358.700 0.700 C 358.544 0.232,49.759 -0.167,43.300 0.292 M117.072 75.200 C 117.802 75.420,119.075 75.792,119.900 76.026 C 126.509 77.905,133.943 83.074,137.702 88.405 C 139.358 90.752,140.800 93.270,140.800 93.814 C 140.800 94.136,140.980 94.400,141.200 94.400 C 141.420 94.400,141.600 94.760,141.600 95.200 C 141.600 95.640,141.780 96.000,142.000 96.000 C 142.220 96.000,142.400 96.439,142.400 96.976 C 142.400 97.513,142.580 98.064,142.800 98.200 C 143.020 98.336,143.200 98.941,143.200 99.544 C 143.200 100.147,143.363 100.811,143.563 101.020 C 144.467 101.966,144.801 110.748,144.080 114.600 C 143.240 119.087,143.108 119.610,142.754 119.829 C 142.559 119.949,142.400 120.487,142.400 121.024 C 142.400 121.561,142.220 122.000,142.000 122.000 C 141.780 122.000,141.600 122.253,141.600 122.562 C 141.600 123.228,139.932 126.541,139.500 126.733 C 139.335 126.807,139.200 127.044,139.200 127.261 C 139.200 130.344,129.517 138.450,122.500 141.242 C 122.005 141.439,121.195 141.766,120.700 141.970 C 119.053 142.647,112.662 143.698,110.200 143.697 C 107.760 143.697,102.768 143.072,102.564 142.741 C 102.448 142.554,101.821 142.400,101.171 142.400 C 100.521 142.400,99.677 142.241,99.295 142.047 C 98.913 141.852,98.105 141.492,97.500 141.247 C 89.011 137.800,82.604 131.962,79.159 124.536 C 78.460 123.031,77.734 121.487,77.545 121.105 C 77.355 120.723,77.200 120.059,77.200 119.629 C 77.200 119.199,77.039 118.748,76.842 118.626 C 75.957 118.079,75.169 103.871,75.979 103.061 C 76.210 102.830,76.400 102.193,76.400 101.647 C 76.400 94.292,86.156 81.910,95.030 78.002 C 96.114 77.525,97.313 76.969,97.695 76.767 C 98.077 76.565,98.741 76.400,99.171 76.400 C 99.601 76.400,100.064 76.220,100.200 76.000 C 100.336 75.780,101.056 75.600,101.800 75.600 C 102.544 75.600,103.264 75.420,103.400 75.200 C 103.547 74.962,106.095 74.800,109.695 74.800 C 113.022 74.800,116.341 74.980,117.072 75.200 M273.600 155.158 C 275.250 155.386,277.410 155.687,278.400 155.827 C 279.390 155.967,280.371 156.244,280.580 156.441 C 280.789 156.638,281.543 156.800,282.256 156.800 C 282.969 156.800,283.664 156.980,283.800 157.200 C 283.936 157.420,284.476 157.600,285.000 157.600 C 285.524 157.600,286.064 157.780,286.200 158.000 C 286.336 158.220,286.799 158.400,287.229 158.400 C 287.659 158.400,288.323 158.564,288.705 158.765 C 289.087 158.965,290.798 159.793,292.507 160.603 C 299.761 164.043,307.342 170.496,310.711 176.100 C 311.075 176.705,311.514 177.200,311.686 177.200 C 311.859 177.200,312.000 177.393,312.000 177.628 C 312.000 177.863,312.508 178.808,313.128 179.728 C 314.500 181.762,317.600 188.107,317.600 188.881 C 317.600 189.188,317.751 189.611,317.934 189.820 C 318.296 190.231,320.052 195.874,320.728 198.800 C 321.680 202.920,321.974 204.271,322.206 205.600 C 322.578 207.736,323.159 212.163,323.647 216.600 C 324.241 221.986,324.579 320.400,324.005 320.400 C 323.782 320.400,323.600 320.635,323.600 320.922 C 323.600 321.697,320.993 324.400,320.246 324.400 C 319.891 324.400,319.600 324.580,319.600 324.800 C 319.600 325.437,275.439 325.340,274.295 324.700 C 272.632 323.771,270.102 320.874,269.782 319.533 C 269.607 318.800,269.341 297.770,269.192 272.800 C 269.017 243.622,268.769 226.614,268.496 225.200 C 265.318 208.707,257.218 201.200,242.600 201.200 C 229.313 201.200,221.999 206.839,216.399 221.400 C 215.933 222.612,214.670 227.437,214.148 230.000 C 213.991 230.770,213.755 251.020,213.624 275.000 C 213.492 298.980,213.226 319.050,213.032 319.600 C 212.265 321.769,210.699 323.515,208.455 324.700 C 207.244 325.339,164.800 325.437,164.800 324.800 C 164.800 324.580,164.512 324.400,164.160 324.400 C 163.469 324.400,161.311 322.335,160.500 320.897 C 160.105 320.196,160.000 303.503,160.000 241.167 L 160.000 162.323 160.871 161.062 C 161.985 159.448,163.053 158.400,163.583 158.400 C 163.812 158.400,164.000 158.220,164.000 158.000 C 164.000 157.780,164.439 157.600,164.976 157.600 C 165.513 157.600,166.064 157.420,166.200 157.200 C 166.513 156.694,206.114 156.649,207.105 157.153 C 207.487 157.348,208.340 157.752,209.000 158.051 C 210.525 158.744,212.800 161.141,212.800 162.055 C 212.800 162.439,212.980 162.864,213.200 163.000 C 213.441 163.149,213.600 165.879,213.600 169.847 L 213.600 176.447 215.955 173.524 C 220.289 168.144,225.379 163.919,230.800 161.201 C 232.230 160.484,233.713 159.740,234.095 159.549 C 234.477 159.357,235.062 159.200,235.395 159.200 C 235.728 159.200,236.000 159.020,236.000 158.800 C 236.000 158.580,236.439 158.400,236.976 158.400 C 237.513 158.400,238.064 158.220,238.200 158.000 C 238.336 157.780,238.876 157.600,239.400 157.600 C 239.924 157.600,240.464 157.420,240.600 157.200 C 240.736 156.980,241.456 156.800,242.200 156.800 C 242.944 156.800,243.664 156.620,243.800 156.400 C 243.936 156.180,244.836 156.000,245.800 156.000 C 246.764 156.000,247.664 155.820,247.800 155.600 C 247.936 155.380,249.252 155.182,250.724 155.160 C 252.196 155.138,253.850 154.971,254.400 154.788 C 255.706 154.355,269.739 154.625,273.600 155.158 M129.800 157.200 C 129.936 157.420,130.487 157.600,131.024 157.600 C 131.561 157.600,132.000 157.780,132.000 158.000 C 132.000 158.220,132.182 158.400,132.403 158.400 C 133.173 158.400,135.191 160.529,135.994 162.187 C 137.105 164.482,137.285 317.263,136.180 319.913 C 135.449 321.665,133.479 323.802,131.842 324.619 C 130.244 325.416,89.699 325.492,88.314 324.700 C 86.612 323.727,84.323 321.389,83.765 320.055 C 82.914 318.018,82.917 164.368,83.768 162.349 C 84.430 160.778,86.646 158.400,87.447 158.400 C 87.751 158.400,88.000 158.220,88.000 158.000 C 88.000 157.780,88.439 157.600,88.976 157.600 C 89.513 157.600,90.064 157.420,90.200 157.200 C 90.359 156.942,97.396 156.800,110.000 156.800 C 122.604 156.800,129.641 156.942,129.800 157.200 " stroke="none" fill="#0474b4" fill-rule="evenodd"></path><path id="path2" d="M108.707 75.090 C 109.426 75.179,110.506 75.177,111.107 75.086 C 111.708 74.995,111.120 74.922,109.800 74.924 C 108.480 74.926,107.988 75.001,108.707 75.090 M103.600 75.600 C 102.243 75.886,102.237 75.895,103.400 75.907 C 104.060 75.915,105.050 75.776,105.600 75.600 C 106.912 75.180,105.596 75.180,103.600 75.600 M114.400 75.580 C 115.399 75.920,117.882 76.132,117.567 75.851 C 117.475 75.769,116.500 75.599,115.400 75.472 C 114.051 75.316,113.726 75.351,114.400 75.580 M98.903 76.784 C 96.314 77.715,92.458 79.583,92.174 80.043 C 92.058 80.230,93.039 79.833,94.353 79.160 C 95.668 78.487,97.971 77.512,99.472 76.992 C 100.972 76.472,101.930 76.043,101.600 76.038 C 101.270 76.033,100.056 76.369,98.903 76.784 M121.000 77.154 C 123.478 78.052,126.161 79.309,128.000 80.432 C 129.365 81.266,129.375 81.266,128.400 80.452 C 126.774 79.096,120.905 76.387,119.651 76.414 C 119.293 76.422,119.900 76.755,121.000 77.154 M89.200 82.068 C 85.426 84.923,81.809 89.250,79.656 93.484 C 78.295 96.162,78.682 96.052,80.140 93.347 C 82.558 88.862,85.940 84.964,90.400 81.519 C 91.170 80.924,91.710 80.430,91.600 80.421 C 91.490 80.411,90.410 81.152,89.200 82.068 M133.047 84.615 C 135.032 86.587,137.151 88.830,137.755 89.600 L 138.854 91.000 137.946 89.600 C 136.828 87.877,132.224 83.022,130.619 81.875 C 129.969 81.410,131.062 82.643,133.047 84.615 M138.815 91.400 C 138.817 91.620,139.186 92.250,139.636 92.800 C 140.179 93.464,140.315 93.531,140.040 93.000 C 139.366 91.695,138.812 90.972,138.815 91.400 M140.606 94.700 C 140.767 95.085,141.263 96.438,141.709 97.707 C 142.154 98.976,142.611 99.922,142.724 99.810 C 142.956 99.578,140.842 94.000,140.522 94.000 C 140.408 94.000,140.446 94.315,140.606 94.700 M76.884 100.700 C 76.627 101.745,76.331 103.590,76.227 104.800 C 76.047 106.876,76.067 106.842,76.573 104.200 C 76.868 102.660,77.242 100.815,77.404 100.100 C 77.871 98.048,77.404 98.587,76.884 100.700 M142.868 101.000 C 142.862 101.440,143.011 102.160,143.200 102.600 C 143.638 103.619,143.638 102.568,143.200 101.200 C 142.943 100.396,142.877 100.357,142.868 101.000 M143.753 109.000 C 143.753 111.640,143.818 112.668,143.897 111.284 C 143.975 109.901,143.974 107.741,143.895 106.484 C 143.816 105.228,143.752 106.360,143.753 109.000 M76.076 112.000 C 76.067 112.550,76.203 113.810,76.380 114.800 C 76.620 116.150,76.707 116.300,76.727 115.400 C 76.742 114.740,76.605 113.480,76.423 112.600 C 76.216 111.598,76.086 111.374,76.076 112.000 M143.056 115.684 C 142.921 116.188,142.827 116.960,142.846 117.400 C 142.865 117.840,143.045 117.498,143.246 116.640 C 143.636 114.978,143.470 114.140,143.056 115.684 M77.044 117.800 C 77.373 119.271,77.602 119.590,77.594 118.567 C 77.591 118.145,77.405 117.530,77.182 117.200 C 76.885 116.762,76.848 116.924,77.044 117.800 M77.798 120.365 C 78.275 121.913,79.194 124.000,79.400 124.000 C 79.614 124.000,78.049 119.907,77.717 119.600 C 77.598 119.490,77.634 119.834,77.798 120.365 M140.229 124.061 C 139.883 124.755,139.600 125.425,139.600 125.550 C 139.600 125.897,140.633 124.294,140.921 123.500 C 141.336 122.355,140.906 122.704,140.229 124.061 M79.600 124.483 C 79.600 124.967,81.670 128.360,82.269 128.857 C 82.623 129.151,82.231 128.313,81.398 126.996 C 79.714 124.333,79.600 124.173,79.600 124.483 M137.793 128.289 C 135.682 131.469,131.028 135.902,127.859 137.753 C 124.757 139.564,124.277 140.153,127.198 138.563 C 131.257 136.353,136.577 131.210,138.923 127.227 C 140.130 125.177,139.410 125.854,137.793 128.289 M83.480 130.600 C 85.349 133.224,90.361 137.397,93.360 138.827 C 95.090 139.652,94.941 139.536,91.044 137.025 C 89.700 136.159,87.256 134.089,85.613 132.425 C 83.970 130.761,83.010 129.940,83.480 130.600 M122.200 140.470 C 118.759 141.856,118.477 142.004,119.800 141.729 C 121.090 141.460,125.264 139.666,124.600 139.665 C 124.380 139.665,123.300 140.027,122.200 140.470 M98.833 141.344 C 98.925 141.423,99.540 141.608,100.200 141.756 C 101.076 141.952,101.238 141.915,100.800 141.618 C 100.260 141.253,98.432 140.998,98.833 141.344 M101.633 142.147 C 101.725 142.228,102.520 142.404,103.400 142.538 C 104.515 142.707,104.758 142.671,104.200 142.419 C 103.432 142.071,101.290 141.844,101.633 142.147 M115.800 142.419 C 115.242 142.671,115.485 142.707,116.600 142.538 C 117.480 142.404,118.275 142.228,118.367 142.147 C 118.710 141.844,116.568 142.071,115.800 142.419 M107.900 143.095 C 109.055 143.176,110.945 143.176,112.100 143.095 C 113.255 143.014,112.310 142.948,110.000 142.948 C 107.690 142.948,106.745 143.014,107.900 143.095 M255.200 155.169 C 253.770 155.296,256.920 155.401,262.200 155.403 C 267.480 155.404,270.630 155.290,269.200 155.150 C 266.065 154.841,258.780 154.851,255.200 155.169 M248.200 156.000 L 247.000 156.305 248.200 156.313 C 248.860 156.317,249.850 156.176,250.400 156.000 L 251.400 155.680 250.400 155.687 C 249.850 155.691,248.860 155.832,248.200 156.000 M274.400 155.980 C 275.399 156.320,277.882 156.532,277.567 156.251 C 277.475 156.169,276.500 155.999,275.400 155.872 C 274.051 155.716,273.726 155.751,274.400 155.980 M244.000 156.800 L 243.000 157.120 244.000 157.154 C 244.550 157.173,245.270 157.013,245.600 156.800 C 246.364 156.306,245.542 156.306,244.000 156.800 M279.200 156.782 C 279.530 157.005,280.145 157.191,280.567 157.194 C 281.590 157.202,281.271 156.973,279.800 156.644 C 278.924 156.448,278.762 156.485,279.200 156.782 M91.000 157.600 C 90.120 157.758,98.670 157.891,110.000 157.897 C 121.860 157.903,129.921 157.768,129.000 157.577 C 127.060 157.176,93.256 157.196,91.000 157.600 M240.800 157.600 C 239.996 157.857,239.957 157.923,240.600 157.932 C 241.040 157.938,241.760 157.789,242.200 157.600 C 243.219 157.162,242.168 157.162,240.800 157.600 M282.400 157.582 C 282.730 157.805,283.345 157.991,283.767 157.994 C 284.790 158.002,284.471 157.773,283.000 157.444 C 282.124 157.248,281.962 157.285,282.400 157.582 M176.128 157.900 C 182.029 157.962,191.569 157.962,197.328 157.900 C 203.088 157.837,198.260 157.786,186.600 157.786 C 174.940 157.786,170.228 157.837,176.128 157.900 M87.159 158.970 C 86.374 159.503,85.432 160.397,85.066 160.956 C 84.025 162.545,84.286 162.711,85.416 161.178 C 85.975 160.421,87.100 159.397,87.916 158.902 C 88.732 158.408,89.217 158.003,88.993 158.002 C 88.769 158.001,87.944 158.436,87.159 158.970 M130.800 158.208 C 130.800 158.281,131.358 158.620,132.040 158.960 C 132.978 159.428,133.170 159.445,132.827 159.033 C 132.419 158.541,130.800 157.882,130.800 158.208 M164.039 158.506 C 162.832 159.126,160.960 161.481,160.625 162.800 C 160.472 163.403,160.696 163.174,161.189 162.223 C 162.160 160.347,163.542 158.800,164.246 158.800 C 164.525 158.800,164.864 158.620,165.000 158.400 C 165.314 157.891,165.213 157.903,164.039 158.506 M232.500 160.783 C 231.125 161.434,230.000 162.056,230.000 162.166 C 230.000 162.379,234.710 160.223,235.102 159.831 C 235.527 159.406,235.017 159.593,232.500 160.783 M134.120 160.712 C 134.475 161.103,135.035 162.048,135.367 162.812 C 135.698 163.575,135.976 163.955,135.984 163.654 C 136.006 162.885,134.333 160.000,133.864 160.000 C 133.651 160.000,133.766 160.320,134.120 160.712 M291.200 160.567 C 291.200 160.644,292.325 161.281,293.700 161.982 C 295.075 162.683,296.020 163.081,295.800 162.866 C 295.032 162.116,291.200 160.201,291.200 160.567 M226.910 163.960 C 225.583 164.818,224.384 165.703,224.245 165.926 C 224.044 166.252,228.952 163.146,229.567 162.559 C 230.144 162.008,228.987 162.618,226.910 163.960 M83.849 163.415 C 83.712 163.773,83.615 164.366,83.634 164.733 C 83.653 165.100,83.827 164.869,84.021 164.220 C 84.398 162.958,84.265 162.333,83.849 163.415 M212.601 164.200 C 212.706 165.080,212.793 168.554,212.796 171.920 C 212.801 179.018,212.679 178.932,216.290 174.400 C 217.605 172.750,219.796 170.344,221.160 169.053 C 222.523 167.762,223.572 166.638,223.489 166.556 C 223.228 166.294,216.872 172.911,215.304 175.078 C 213.214 177.966,213.205 177.949,213.160 170.900 C 213.138 167.435,212.961 164.150,212.766 163.600 C 212.485 162.807,212.451 162.931,212.601 164.200 M296.600 163.479 C 296.820 163.687,298.260 164.772,299.800 165.892 C 301.340 167.012,303.832 169.204,305.338 170.764 C 306.843 172.324,308.189 173.600,308.328 173.600 C 308.807 173.600,302.593 167.532,300.347 165.808 C 298.281 164.222,295.660 162.593,296.600 163.479 M160.106 241.200 C 160.007 327.510,159.780 320.194,162.650 322.875 C 163.779 323.929,165.945 324.989,166.282 324.651 C 166.377 324.557,165.841 324.278,165.093 324.031 C 163.670 323.561,162.081 322.099,161.149 320.400 C 160.691 319.566,160.566 306.500,160.397 241.600 L 160.195 163.800 160.106 241.200 M136.196 241.200 C 136.196 283.550,136.243 300.875,136.300 279.700 C 136.357 258.525,136.357 223.875,136.300 202.700 C 136.243 181.525,136.196 198.850,136.196 241.200 M309.296 175.395 C 309.793 176.162,310.344 176.792,310.520 176.795 C 310.697 176.798,310.360 176.170,309.773 175.400 C 308.400 173.600,308.132 173.597,309.296 175.395 M311.609 178.700 C 311.614 178.865,311.985 179.450,312.433 180.000 L 313.248 181.000 312.614 179.700 C 312.011 178.465,311.589 178.045,311.609 178.700 M313.800 182.400 C 314.141 183.060,314.511 183.600,314.621 183.600 C 314.731 183.600,314.541 183.060,314.200 182.400 C 313.859 181.740,313.489 181.200,313.379 181.200 C 313.269 181.200,313.459 181.740,313.800 182.400 M319.044 195.400 C 319.373 196.871,319.602 197.190,319.594 196.167 C 319.591 195.745,319.405 195.130,319.182 194.800 C 318.885 194.362,318.848 194.524,319.044 195.400 M319.858 198.400 C 320.175 200.125,320.402 200.451,320.394 199.167 C 320.391 198.635,320.211 197.930,319.994 197.600 C 319.718 197.178,319.677 197.415,319.858 198.400 M238.400 200.353 C 237.630 200.489,239.520 200.605,242.600 200.611 C 246.157 200.618,247.543 200.519,246.400 200.340 C 244.246 200.004,240.339 200.010,238.400 200.353 M234.400 201.200 C 233.596 201.457,233.557 201.523,234.200 201.532 C 234.640 201.538,235.360 201.389,235.800 201.200 C 236.819 200.762,235.768 200.762,234.400 201.200 M249.400 201.200 C 249.840 201.389,250.560 201.544,251.000 201.544 L 251.800 201.544 251.000 201.200 C 250.560 201.011,249.840 200.856,249.400 200.856 L 248.600 200.856 249.400 201.200 M227.996 204.169 C 225.176 206.090,224.040 207.080,222.207 209.212 C 221.551 209.975,222.181 209.500,223.607 208.155 C 226.230 205.682,229.607 203.200,230.348 203.200 C 230.571 203.200,230.864 203.020,231.000 202.800 C 231.494 202.001,230.538 202.436,227.996 204.169 M254.033 202.549 C 254.445 202.917,256.800 204.000,256.800 203.821 C 256.800 203.590,254.582 202.400,254.153 202.400 C 253.996 202.400,253.942 202.467,254.033 202.549 M321.482 205.800 C 321.609 206.900,321.777 207.875,321.856 207.967 C 322.155 208.314,321.928 205.364,321.597 204.600 C 321.374 204.085,321.333 204.513,321.482 205.800 M260.587 207.126 C 261.901 208.487,263.043 209.600,263.127 209.600 C 263.428 209.600,260.973 206.970,259.602 205.824 C 258.831 205.180,259.274 205.766,260.587 207.126 M322.447 212.233 C 322.473 213.315,322.635 214.740,322.806 215.400 C 322.988 216.103,323.028 215.358,322.903 213.600 C 322.657 210.159,322.377 209.318,322.447 212.233 M220.093 211.900 C 219.057 213.396,218.721 214.000,218.923 214.000 C 219.017 214.000,219.570 213.280,220.153 212.400 C 221.336 210.612,221.284 210.179,220.093 211.900 M264.600 212.400 C 264.941 213.060,265.311 213.600,265.421 213.600 C 265.531 213.600,265.341 213.060,265.000 212.400 C 264.659 211.740,264.289 211.200,264.179 211.200 C 264.069 211.200,264.259 211.740,264.600 212.400 M265.646 214.200 C 265.653 214.420,266.006 215.320,266.429 216.200 C 266.852 217.080,267.086 217.350,266.949 216.800 C 266.667 215.667,265.625 213.588,265.646 214.200 M323.307 219.800 C 323.295 221.340,323.417 224.220,323.579 226.200 C 323.848 229.485,323.875 229.573,323.892 227.200 C 323.902 225.770,323.780 222.890,323.620 220.800 C 323.346 217.214,323.328 217.158,323.307 219.800 M215.800 220.400 C 215.650 220.873,215.617 221.350,215.727 221.460 C 215.837 221.570,216.050 221.273,216.200 220.800 C 216.350 220.327,216.383 219.850,216.273 219.740 C 216.163 219.630,215.950 219.927,215.800 220.400 M268.034 221.200 C 268.046 221.530,268.211 222.160,268.400 222.600 L 268.744 223.400 268.766 222.600 C 268.778 222.160,268.613 221.530,268.400 221.200 C 268.055 220.667,268.015 220.667,268.034 221.200 M215.000 222.800 C 214.850 223.273,214.817 223.750,214.927 223.860 C 215.037 223.970,215.250 223.673,215.400 223.200 C 215.550 222.727,215.583 222.250,215.473 222.140 C 215.363 222.030,215.150 222.327,215.000 222.800 M268.868 225.000 C 268.874 225.440,269.024 226.250,269.200 226.800 L 269.520 227.800 269.532 226.800 C 269.538 226.250,269.389 225.440,269.200 225.000 L 268.856 224.200 268.868 225.000 M214.273 225.353 C 214.123 225.745,214.011 226.366,214.025 226.733 C 214.042 227.175,214.181 227.074,214.437 226.434 C 214.649 225.903,214.761 225.282,214.685 225.054 C 214.609 224.827,214.424 224.961,214.273 225.353 M213.476 228.810 C 213.330 229.355,213.227 230.250,213.246 230.800 C 213.271 231.518,213.384 231.357,213.649 230.227 C 214.055 228.495,213.900 227.225,213.476 228.810 M269.903 269.238 C 269.960 290.887,270.055 310.940,270.116 313.800 C 270.176 316.660,270.254 299.650,270.290 276.000 C 270.325 252.350,270.229 232.297,270.077 231.438 C 269.925 230.580,269.846 247.590,269.903 269.238 M212.659 234.688 C 212.521 235.519,212.448 254.920,212.497 277.800 L 212.584 319.400 212.792 276.400 C 212.906 252.750,212.979 233.349,212.954 233.288 C 212.929 233.226,212.796 233.856,212.659 234.688 M324.193 276.200 C 324.193 299.300,324.241 308.691,324.300 297.069 C 324.359 285.448,324.359 266.548,324.300 255.069 C 324.241 243.591,324.193 253.100,324.193 276.200 M83.606 317.833 C 83.609 318.255,83.795 318.870,84.018 319.200 C 84.315 319.638,84.352 319.476,84.156 318.600 C 83.827 317.129,83.598 316.810,83.606 317.833 M135.646 318.667 C 135.621 318.924,135.484 319.464,135.341 319.867 C 135.140 320.436,135.194 320.497,135.579 320.142 C 135.852 319.891,135.989 319.351,135.884 318.942 C 135.779 318.534,135.672 318.410,135.646 318.667 M323.390 319.670 C 322.896 321.293,321.299 323.063,319.521 323.956 C 318.574 324.431,318.250 324.707,318.800 324.570 C 320.871 324.053,324.727 319.794,323.885 318.952 C 323.768 318.835,323.546 319.158,323.390 319.670 M270.401 319.807 C 270.399 320.544,272.397 323.171,273.308 323.628 C 274.082 324.018,274.062 323.953,273.155 323.138 C 272.580 322.622,271.725 321.570,271.256 320.800 C 270.787 320.030,270.402 319.583,270.401 319.807 M133.662 322.186 C 132.926 322.943,131.699 323.769,130.935 324.021 C 130.171 324.274,129.639 324.572,129.752 324.686 C 130.170 325.103,133.621 323.094,134.424 321.966 C 135.512 320.438,135.300 320.499,133.662 322.186 M85.798 322.337 C 86.234 322.852,86.953 323.459,87.396 323.686 C 88.245 324.121,88.121 323.987,86.203 322.394 C 85.048 321.435,85.034 321.433,85.798 322.337 M210.516 322.362 C 210.255 322.781,209.315 323.445,208.427 323.836 C 207.540 324.227,206.886 324.620,206.975 324.708 C 207.277 325.010,209.902 323.556,210.821 322.577 C 211.326 322.040,211.571 321.600,211.366 321.600 C 211.161 321.600,210.778 321.943,210.516 322.362 M100.500 325.100 C 105.725 325.163,114.275 325.163,119.500 325.100 C 124.725 325.036,120.450 324.985,110.000 324.985 C 99.550 324.985,95.275 325.036,100.500 325.100 M176.500 325.100 C 181.945 325.163,190.855 325.163,196.300 325.100 C 201.745 325.037,197.290 324.985,186.400 324.985 C 175.510 324.985,171.055 325.037,176.500 325.100 M286.928 325.100 C 292.608 325.162,301.788 325.162,307.328 325.100 C 312.868 325.037,308.220 324.986,297.000 324.986 C 285.780 324.986,281.248 325.037,286.928 325.100 " stroke="none" fill="#7cbcdc" fill-rule="evenodd"></path><path id="path3" d="M112.500 75.076 C 112.885 75.176,113.515 75.176,113.900 75.076 C 114.285 74.975,113.970 74.893,113.200 74.893 C 112.430 74.893,112.115 74.975,112.500 75.076 M133.800 84.800 C 134.883 85.900,135.860 86.800,135.970 86.800 C 136.080 86.800,135.283 85.900,134.200 84.800 C 133.117 83.700,132.140 82.800,132.030 82.800 C 131.920 82.800,132.717 83.700,133.800 84.800 M75.746 109.000 C 75.747 111.200,75.814 112.049,75.895 110.887 C 75.976 109.724,75.976 107.924,75.893 106.887 C 75.811 105.849,75.745 106.800,75.746 109.000 M144.124 109.400 C 144.126 110.720,144.201 111.212,144.290 110.493 C 144.379 109.774,144.377 108.694,144.286 108.093 C 144.195 107.492,144.122 108.080,144.124 109.400 M267.700 155.076 C 268.085 155.176,268.715 155.176,269.100 155.076 C 269.485 154.975,269.170 154.893,268.400 154.893 C 267.630 154.893,267.315 154.975,267.700 155.076 M272.100 155.476 C 272.485 155.576,273.115 155.576,273.500 155.476 C 273.885 155.375,273.570 155.293,272.800 155.293 C 272.030 155.293,271.715 155.375,272.100 155.476 M176.728 157.500 C 182.298 157.563,191.298 157.562,196.728 157.500 C 202.158 157.437,197.600 157.385,186.600 157.386 C 175.600 157.386,171.158 157.437,176.728 157.500 M136.596 241.200 C 136.596 283.110,136.643 300.255,136.700 279.300 C 136.757 258.345,136.757 224.055,136.700 203.100 C 136.643 182.145,136.596 199.290,136.596 241.200 M83.396 241.200 C 83.396 282.670,83.443 299.635,83.500 278.900 C 83.557 258.165,83.557 224.235,83.500 203.500 C 83.443 182.765,83.396 199.730,83.396 241.200 M304.800 169.800 C 305.995 171.010,307.063 172.000,307.173 172.000 C 307.283 172.000,306.395 171.010,305.200 169.800 C 304.005 168.590,302.937 167.600,302.827 167.600 C 302.717 167.600,303.605 168.590,304.800 169.800 M218.778 170.700 L 217.400 172.200 218.900 170.822 C 220.296 169.538,220.584 169.200,220.278 169.200 C 220.212 169.200,219.537 169.875,218.778 170.700 M241.100 200.689 C 241.815 200.778,242.985 200.778,243.700 200.689 C 244.415 200.601,243.830 200.528,242.400 200.528 C 240.970 200.528,240.385 200.601,241.100 200.689 M324.150 230.200 C 324.151 232.620,324.216 233.558,324.296 232.285 C 324.376 231.012,324.375 229.032,324.294 227.885 C 324.214 226.738,324.149 227.780,324.150 230.200 M269.734 236.000 C 269.734 237.650,269.805 238.325,269.891 237.500 C 269.978 236.675,269.978 235.325,269.891 234.500 C 269.805 233.675,269.734 234.350,269.734 236.000 M212.993 277.200 C 212.993 299.970,213.041 309.285,213.100 297.900 C 213.159 286.515,213.159 267.885,213.100 256.500 C 213.041 245.115,212.993 254.430,212.993 277.200 M269.792 280.600 C 269.792 301.060,269.841 309.371,269.900 299.070 C 269.959 288.768,269.959 272.028,269.900 261.870 C 269.840 251.711,269.792 260.140,269.792 280.600 " stroke="none" fill="#62aad3" fill-rule="evenodd"></path><path id="path4" d="M103.390 75.216 C 103.221 75.489,103.523 75.538,104.266 75.360 C 105.799 74.992,105.944 74.800,104.690 74.800 C 104.117 74.800,103.532 74.987,103.390 75.216 M115.200 75.200 C 116.742 75.694,117.564 75.694,116.800 75.200 C 116.470 74.987,115.750 74.827,115.200 74.846 L 114.200 74.880 115.200 75.200 M93.500 78.629 C 92.005 79.440,92.096 79.778,93.600 79.000 C 94.260 78.659,94.800 78.294,94.800 78.190 C 94.800 77.932,94.757 77.947,93.500 78.629 M86.598 83.661 C 85.151 85.015,83.596 86.680,83.142 87.361 C 82.607 88.162,82.832 88.005,83.779 86.915 C 84.583 85.988,86.267 84.326,87.521 83.221 C 88.774 82.115,89.672 81.209,89.515 81.206 C 89.358 81.203,88.045 82.307,86.598 83.661 M133.400 84.111 C 135.160 85.807,136.682 87.196,136.783 87.197 C 137.121 87.202,133.418 83.548,131.800 82.281 C 130.920 81.591,131.640 82.415,133.400 84.111 M138.237 89.800 C 138.597 90.350,138.957 90.800,139.037 90.800 C 139.117 90.800,138.978 90.350,138.727 89.800 C 138.477 89.250,138.116 88.800,137.927 88.800 C 137.737 88.800,137.876 89.250,138.237 89.800 M143.228 101.076 C 143.318 102.115,143.944 102.996,143.972 102.124 C 143.987 101.642,143.820 101.136,143.600 101.000 C 143.380 100.864,143.213 100.898,143.228 101.076 M75.867 103.067 C 75.720 103.213,75.615 103.798,75.634 104.367 C 75.668 105.381,75.675 105.379,76.021 104.220 C 76.385 103.003,76.331 102.602,75.867 103.067 M144.191 109.208 C 144.196 111.386,144.322 112.860,144.472 112.484 C 144.847 111.541,144.857 106.309,144.485 105.724 C 144.319 105.462,144.186 107.030,144.191 109.208 M75.646 113.600 C 75.627 114.150,75.787 114.870,76.000 115.200 C 76.494 115.964,76.494 115.142,76.000 113.600 L 75.680 112.600 75.646 113.600 M143.646 115.667 C 143.621 116.034,143.496 116.664,143.370 117.067 C 143.152 117.762,143.163 117.763,143.597 117.087 C 143.848 116.696,143.973 116.066,143.873 115.687 C 143.711 115.068,143.688 115.066,143.646 115.667 M80.051 126.500 C 81.122 128.515,84.862 133.200,85.398 133.200 C 85.565 133.200,85.002 132.435,84.147 131.500 C 83.292 130.565,81.991 128.855,81.255 127.700 C 79.900 125.574,79.172 124.848,80.051 126.500 M136.568 130.700 C 135.728 131.745,135.455 132.240,135.963 131.800 C 136.917 130.974,138.592 128.800,138.275 128.800 C 138.177 128.800,137.409 129.655,136.568 130.700 M86.084 134.100 C 87.820 135.704,88.558 136.141,87.425 134.894 C 86.779 134.182,86.091 133.600,85.897 133.600 C 85.702 133.600,85.786 133.825,86.084 134.100 M131.200 136.054 L 129.400 137.685 131.094 136.413 C 132.568 135.307,133.514 134.374,133.124 134.412 C 133.056 134.419,132.190 135.158,131.200 136.054 M88.800 136.300 C 88.800 136.469,89.160 136.832,89.600 137.107 C 90.040 137.382,90.400 137.469,90.400 137.300 C 90.400 137.131,90.040 136.768,89.600 136.493 C 89.160 136.218,88.800 136.131,88.800 136.300 M116.400 142.800 C 115.576 143.064,115.541 143.126,116.200 143.154 C 116.640 143.173,117.270 143.013,117.600 142.800 C 118.301 142.347,117.814 142.347,116.400 142.800 M108.674 143.661 C 109.725 143.897,110.840 143.895,111.674 143.654 C 112.805 143.328,112.559 143.273,110.000 143.279 C 107.202 143.285,107.112 143.311,108.674 143.661 M254.475 154.740 C 253.966 154.883,257.513 155.000,262.359 155.000 C 267.204 155.000,270.860 154.878,270.484 154.728 C 269.614 154.382,255.710 154.393,254.475 154.740 M247.815 155.576 C 247.676 155.801,248.191 155.859,249.091 155.720 C 251.100 155.410,251.261 155.200,249.490 155.200 C 248.697 155.200,247.943 155.369,247.815 155.576 M274.033 155.347 C 274.125 155.428,274.920 155.614,275.800 155.762 C 276.946 155.954,277.230 155.914,276.800 155.621 C 276.260 155.253,273.632 154.993,274.033 155.347 M243.800 156.400 C 243.508 156.873,243.899 156.873,245.000 156.400 C 245.771 156.069,245.769 156.055,244.924 156.028 C 244.442 156.013,243.936 156.180,243.800 156.400 M279.400 156.400 C 280.501 156.873,280.892 156.873,280.600 156.400 C 280.464 156.180,279.958 156.013,279.476 156.028 C 278.631 156.055,278.629 156.069,279.400 156.400 M90.262 157.100 C 90.160 157.265,99.042 157.400,110.000 157.400 C 120.958 157.400,129.840 157.265,129.738 157.100 C 129.636 156.935,120.754 156.800,110.000 156.800 C 99.246 156.800,90.364 156.935,90.262 157.100 M166.262 157.100 C 166.160 157.265,175.312 157.400,186.600 157.400 C 197.888 157.400,207.040 157.265,206.938 157.100 C 206.696 156.708,166.504 156.708,166.262 157.100 M240.600 157.200 C 240.308 157.673,240.699 157.673,241.800 157.200 C 242.571 156.869,242.569 156.855,241.724 156.828 C 241.242 156.813,240.736 156.980,240.600 157.200 M85.616 159.700 C 84.077 161.264,83.182 163.250,83.250 164.949 C 83.296 166.084,83.325 166.052,83.572 164.600 C 83.912 162.596,84.559 161.356,86.126 159.700 C 86.803 158.985,87.253 158.400,87.126 158.400 C 86.999 158.400,86.319 158.985,85.616 159.700 M211.600 160.247 C 211.600 160.467,211.864 160.996,212.187 161.424 C 212.510 161.851,212.775 162.020,212.775 161.800 C 212.775 161.580,212.510 161.051,212.187 160.624 C 211.864 160.196,211.600 160.027,211.600 160.247 M135.977 163.194 C 136.320 164.264,136.659 164.975,136.732 164.774 C 136.898 164.313,136.043 161.674,135.648 161.430 C 135.487 161.330,135.635 162.124,135.977 163.194 M228.700 162.229 C 227.205 163.040,227.296 163.378,228.800 162.600 C 229.460 162.259,230.000 161.894,230.000 161.790 C 230.000 161.532,229.957 161.547,228.700 162.229 M296.000 162.529 C 296.000 162.627,297.189 163.481,298.643 164.428 C 300.097 165.375,302.746 167.547,304.531 169.254 C 306.315 170.961,307.829 172.304,307.895 172.239 C 308.163 171.971,301.570 166.010,299.369 164.531 C 296.469 162.582,296.000 162.304,296.000 162.529 M213.128 169.732 C 213.269 177.348,213.304 177.498,214.533 175.800 C 215.010 175.141,216.445 173.384,217.722 171.897 C 219.798 169.479,221.124 168.260,226.018 164.274 C 227.110 163.385,226.986 163.427,225.428 164.474 C 222.602 166.374,218.739 170.060,215.982 173.486 L 213.600 176.447 213.600 169.847 C 213.600 166.217,213.465 163.163,213.300 163.061 C 213.135 162.959,213.057 165.960,213.128 169.732 M313.160 180.200 C 313.834 181.505,314.388 182.228,314.385 181.800 C 314.383 181.580,314.014 180.950,313.564 180.400 C 313.021 179.736,312.885 179.669,313.160 180.200 M315.309 184.300 C 315.628 184.912,316.797 187.519,317.167 188.444 C 317.377 188.970,317.561 189.180,317.575 188.912 C 317.605 188.319,315.662 184.000,315.365 184.000 C 315.248 184.000,315.223 184.135,315.309 184.300 M318.648 192.600 C 318.791 193.260,319.066 194.070,319.259 194.400 C 319.484 194.784,319.518 194.568,319.352 193.800 C 319.209 193.140,318.934 192.330,318.741 192.000 C 318.516 191.616,318.482 191.832,318.648 192.600 M319.634 195.800 C 319.622 196.240,319.787 196.870,320.000 197.200 C 320.514 197.995,320.514 196.996,320.000 195.800 L 319.656 195.000 319.634 195.800 M320.456 198.800 C 320.456 199.130,320.611 199.760,320.800 200.200 C 321.017 200.704,321.144 200.778,321.144 200.400 C 321.144 200.070,320.989 199.440,320.800 199.000 C 320.583 198.496,320.456 198.422,320.456 198.800 M239.682 201.096 C 241.158 201.173,243.678 201.173,245.282 201.097 C 246.887 201.021,245.680 200.958,242.600 200.958 C 239.520 200.957,238.207 201.019,239.682 201.096 M233.445 201.928 C 233.333 202.108,233.773 202.177,234.421 202.082 C 235.070 201.987,235.600 201.840,235.600 201.755 C 235.600 201.450,233.643 201.607,233.445 201.928 M250.400 201.892 C 250.950 201.993,252.705 202.677,254.300 203.412 C 255.895 204.147,257.200 204.658,257.200 204.548 C 257.200 204.126,251.206 201.603,250.326 201.654 C 249.434 201.707,249.437 201.716,250.400 201.892 M321.256 202.400 C 321.256 202.730,321.411 203.360,321.600 203.800 C 321.817 204.304,321.944 204.378,321.944 204.000 C 321.944 203.670,321.789 203.040,321.600 202.600 C 321.383 202.096,321.256 202.022,321.256 202.400 M223.978 207.900 L 222.600 209.400 224.100 208.022 C 224.925 207.263,225.600 206.588,225.600 206.522 C 225.600 206.216,225.262 206.504,223.978 207.900 M322.034 206.800 C 322.046 207.130,322.211 207.760,322.400 208.200 L 322.744 209.000 322.766 208.200 C 322.778 207.760,322.613 207.130,322.400 206.800 C 322.055 206.267,322.015 206.267,322.034 206.800 M262.093 209.600 C 262.368 210.040,262.731 210.400,262.900 210.400 C 263.069 210.400,262.982 210.040,262.707 209.600 C 262.432 209.160,262.069 208.800,261.900 208.800 C 261.731 208.800,261.818 209.160,262.093 209.600 M263.560 211.400 C 264.234 212.705,264.788 213.428,264.785 213.000 C 264.783 212.780,264.414 212.150,263.964 211.600 C 263.421 210.936,263.285 210.869,263.560 211.400 M322.868 212.600 C 322.874 213.040,323.024 213.850,323.200 214.400 L 323.520 215.400 323.532 214.400 C 323.538 213.850,323.389 213.040,323.200 212.600 L 322.856 211.800 322.868 212.600 M266.016 216.125 C 265.992 216.611,267.267 220.400,267.454 220.400 C 267.543 220.400,267.493 219.905,267.343 219.300 C 267.022 218.008,266.038 215.654,266.016 216.125 M217.147 218.300 C 216.472 220.016,215.998 221.735,216.278 221.456 C 216.623 221.110,217.985 217.200,217.760 217.200 C 217.661 217.200,217.385 217.695,217.147 218.300 M323.877 222.800 C 324.006 224.450,324.176 225.875,324.256 225.967 C 324.566 226.325,324.323 221.353,323.994 220.600 C 323.778 220.106,323.733 220.947,323.877 222.800 M267.606 221.433 C 267.609 221.855,267.795 222.470,268.018 222.800 C 268.315 223.238,268.352 223.076,268.156 222.200 C 267.827 220.729,267.598 220.410,267.606 221.433 M215.646 222.467 C 215.621 222.834,215.496 223.464,215.370 223.867 C 215.152 224.562,215.163 224.563,215.597 223.887 C 215.848 223.496,215.973 222.866,215.873 222.487 C 215.711 221.868,215.688 221.866,215.646 222.467 M268.428 225.233 C 268.444 225.985,268.612 226.960,268.803 227.400 C 269.026 227.915,269.067 227.487,268.918 226.200 C 268.644 223.822,268.389 223.319,268.428 225.233 M214.849 225.200 C 214.816 225.530,214.689 226.250,214.567 226.800 C 214.375 227.664,214.407 227.703,214.799 227.088 C 215.048 226.697,215.175 225.977,215.081 225.488 C 214.986 225.000,214.882 224.870,214.849 225.200 M214.054 229.000 C 214.019 229.440,213.889 230.250,213.767 230.800 C 213.575 231.663,213.607 231.703,213.998 231.090 C 214.247 230.699,214.377 229.889,214.286 229.290 C 214.178 228.579,214.097 228.479,214.054 229.000 M269.206 273.633 C 269.209 297.925,269.344 318.008,269.506 318.262 C 269.668 318.515,269.768 298.744,269.730 274.325 C 269.691 249.906,269.556 229.823,269.430 229.697 C 269.303 229.570,269.203 249.342,269.206 273.633 M213.298 275.667 C 213.244 298.914,213.096 318.264,212.970 318.667 C 212.763 319.324,212.784 319.331,213.172 318.732 C 213.476 318.262,213.573 305.532,213.500 275.732 L 213.396 233.400 213.298 275.667 M83.301 317.800 C 83.305 318.680,83.387 318.993,83.483 318.495 C 83.579 317.998,83.575 317.278,83.475 316.895 C 83.375 316.513,83.296 316.920,83.301 317.800 M136.250 318.450 C 135.917 320.117,136.240 320.440,136.600 318.800 C 136.752 318.109,136.793 317.459,136.691 317.358 C 136.589 317.256,136.391 317.747,136.250 318.450 M84.000 320.655 C 84.000 320.868,84.675 321.663,85.500 322.422 L 87.000 323.800 85.600 322.204 C 84.830 321.327,84.155 320.532,84.100 320.438 C 84.045 320.344,84.000 320.441,84.000 320.655 M133.917 322.441 C 132.882 323.518,132.184 324.400,132.366 324.400 C 132.714 324.400,136.000 320.972,136.000 320.609 C 136.000 320.286,135.924 320.353,133.917 322.441 " stroke="none" fill="#3294c4" fill-rule="evenodd"></path></g></svg>